<?xml version="1.0" encoding="UTF-8"?>
<svg xmlns="http://www.w3.org/2000/svg" width="2048" height="2048" viewBox="0 0 2048 2048">
  <path d="M 1452.00 1941.50 L 756.00 1939.50 L 729.00 1924.50 L 707.50 1900.00 L 700.50 1884.00 L 695.50 1850.00 L 701.50 1824.00 L 713.50 1804.00 L 742.00 1780.50 L 766.00 1772.50 L 1051.50 1771.00 L 1002.50 1711.00 L 965.50 1649.00 L 939.50 1589.00 L 920.50 1523.00 L 909.50 1445.00 L 908.50 1374.00 L 914.50 1318.00 L 932.50 1243.00 L 965.50 1163.00 L 1013.50 1085.00 L 1089.00 1003.50 L 1154.00 953.50 L 1240.00 909.50 L 1344.00 877.50 L 1422.00 870.50 L 1541.50 876.00 L 1542.50 570.00 L 1538.50 539.00 L 1515.00 507.50 L 1480.00 488.50 L 1346.50 490.00 L 1343.50 692.00 L 1330.50 719.00 L 1304.00 744.50 L 1263.00 757.50 L 539.00 756.50 L 501.00 738.50 L 475.50 706.00 L 468.50 672.00 L 468.00 488.50 L 334.00 488.50 L 307.00 500.50 L 286.50 520.00 L 268.50 560.00 L 268.50 1696.00 L 281.50 1733.00 L 319.00 1765.50 L 343.00 1771.50 L 468.00 1771.50 L 509.00 1786.50 L 529.50 1806.00 L 541.50 1829.00 L 543.50 1873.00 L 535.50 1898.00 L 524.50 1913.00 L 502.00 1932.50 L 484.00 1939.50 L 310.00 1939.50 L 299.00 1933.50 L 279.00 1932.50 L 222.00 1906.50 L 182.00 1876.50 L 151.50 1844.00 L 114.50 1779.00 L 100.50 1720.00 L 100.50 537.00 L 107.50 501.00 L 126.50 453.00 L 150.50 417.00 L 195.00 371.50 L 245.00 340.50 L 298.00 321.50 L 644.00 319.50 L 650.50 316.00 L 650.50 287.00 L 670.50 215.00 L 689.50 179.00 L 733.00 127.50 L 785.00 90.50 L 827.00 71.50 L 882.00 59.50 L 914.00 58.50 L 984.00 70.50 L 1029.00 89.50 L 1060.00 109.50 L 1093.50 140.00 L 1123.50 178.00 L 1148.50 229.00 L 1161.50 283.00 L 1162.50 316.00 L 1168.00 319.50 L 1516.00 321.50 L 1592.00 352.50 L 1649.50 400.00 L 1693.50 467.00 L 1712.50 534.00 L 1713.50 934.00 L 1720.00 945.50 L 1787.00 990.50 L 1842.50 1044.00 L 1886.50 1098.00 L 1930.50 1174.00 L 1955.50 1235.00 L 1974.50 1311.00 L 1981.50 1370.00 L 1979.50 1463.00 L 1956.50 1573.00 L 1918.50 1661.00 L 1873.50 1730.00 L 1810.00 1800.50 L 1729.00 1862.50 L 1638.00 1907.50 L 1555.00 1932.50 L 1529.00 1933.50 L 1512.00 1939.50 L 1452.00 1941.50 Z M 984.50 319.00 L 992.50 312.00 L 987.50 285.00 L 975.50 264.00 L 956.00 245.50 L 931.00 232.50 L 887.00 231.50 L 868.00 238.50 L 843.50 258.00 L 824.50 289.00 L 823.50 315.00 L 830.00 319.50 L 984.50 319.00 Z M 1143.50 588.00 L 1172.50 583.00 L 1170.00 488.50 L 642.00 488.50 L 640.50 493.00 L 640.50 583.00 L 644.00 586.50 L 1143.50 588.00 Z M 1479.50 1771.00 L 1543.00 1759.50 L 1612.00 1733.50 L 1677.00 1690.50 L 1713.50 1655.00 L 1750.50 1609.00 L 1788.50 1535.00 L 1807.50 1459.00 L 1812.50 1397.00 L 1801.50 1318.00 L 1769.50 1234.00 L 1732.50 1178.00 L 1689.00 1132.50 L 1620.00 1083.50 L 1544.00 1051.50 L 1479.00 1039.50 L 1412.00 1039.50 L 1402.00 1044.50 L 1345.00 1051.50 L 1269.00 1083.50 L 1207.00 1127.50 L 1163.50 1172.00 L 1118.50 1239.00 L 1093.50 1302.00 L 1081.50 1363.00 L 1081.50 1447.00 L 1093.50 1509.00 L 1118.50 1572.00 L 1162.50 1638.00 L 1214.00 1690.50 L 1282.00 1734.50 L 1347.00 1759.50 L 1411.00 1771.50 L 1479.50 1771.00 Z M 1400.00 1612.50 L 1358.00 1607.50 L 1336.00 1594.50 L 1196.50 1456.00 L 1176.50 1420.00 L 1175.50 1382.00 L 1183.50 1356.00 L 1215.00 1322.50 L 1249.00 1311.50 L 1271.00 1311.50 L 1311.00 1327.50 L 1388.00 1403.50 L 1394.00 1402.50 L 1587.00 1210.50 L 1626.00 1200.50 L 1662.00 1203.50 L 1675.00 1210.50 L 1693.50 1226.00 L 1712.50 1254.00 L 1717.50 1294.00 L 1705.50 1330.00 L 1456.00 1582.50 L 1435.00 1600.50 L 1400.00 1612.50 Z" fill="#111" fill-rule="evenodd"/>
</svg>
